<svg xmlns="http://www.w3.org/2000/svg" viewBox="0 0 520.1 152.29"><defs><style>.cls-1{fill:#8bc53f;}.cls-2{fill:#404041;}.cls-3{fill:#6d6d6d;}</style></defs><title>Ativo 1</title><g id="Camada_2" data-name="Camada 2"><g id="Layer_1" data-name="Layer 1"><path class="cls-1" d="M130.26,103.19a7.24,7.24,0,0,0-3.31,7.73l-4.19,3.41a11.09,11.09,0,0,0-4.77-2.11l-3.69-7.44a11,11,0,0,0,1.62-12.61l9.66-7.92a11,11,0,1,0,0-16.22l-9.66-7.92A11,11,0,0,0,114.3,47.5L118,40.06a11,11,0,0,0,4.77-2.1l4.19,3.4A7.24,7.24,0,1,0,131,36.3l-4.52-3.67a11,11,0,0,0-9.37-14.32l-1-5.6a7,7,0,0,0,1.43-1.7,7.25,7.25,0,1,0-10,2.43,7.15,7.15,0,0,0,2.2.88l1,5.3a11,11,0,0,0-5.43,7.19l-6.35,0a7.24,7.24,0,1,0-.48,6.57s0,0,0-.07l7.3,0a10.94,10.94,0,0,0,4.5,5.32c.28.17.57.32.86.47l-2.54,5.12A11,11,0,0,0,95.9,51.16L82.07,54.68a10.85,10.85,0,0,0-20.19,0L48.05,51.16a11.69,11.69,0,0,0-.93-1.92,11,11,0,0,0-11.84-5l-2.54-5.12c.29-.15.58-.3.86-.47a10.94,10.94,0,0,0,4.5-5.32l7.3,0a.25.25,0,0,0,0,.07A7.27,7.27,0,1,0,45,26.79l-6.35,0a11.1,11.1,0,0,0-1.33-3.27,11,11,0,0,0-4.09-3.92l1-5.3a7.15,7.15,0,0,0,2.2-.88,7.25,7.25,0,1,0-10-2.43,7,7,0,0,0,1.43,1.7l-1,5.6a11,11,0,0,0-9.37,14.32L12.92,36.3A7.26,7.26,0,1,0,17,41.36L21.19,38A11,11,0,0,0,26,40.06l3.68,7.44A11,11,0,0,0,28,60.11L18.37,68a11,11,0,1,0,0,16.22L28,92.17a11,11,0,0,0,1.6,12.61L26,112.22a11.09,11.09,0,0,0-4.77,2.11L17,110.92A7.23,7.23,0,1,0,12.92,116l4.52,3.67A11,11,0,0,0,26.81,134l1,5.59a7.14,7.14,0,0,0-1.43,1.7,7.25,7.25,0,1,0,10-2.43,7.12,7.12,0,0,0-2.2-.87l-1-5.3a11,11,0,0,0,4.09-3.92,11.21,11.21,0,0,0,1.33-3.27l6.35,0a7.15,7.15,0,0,0,2.91,3.38,7.25,7.25,0,1,0-2.43-9.95l0,.06-7.3,0a10.9,10.9,0,0,0-4.5-5.32c-.28-.17-.57-.33-.86-.47l2.54-5.13a11,11,0,0,0,11.84-5,11.4,11.4,0,0,0,.93-1.93L61.88,97.6a10.85,10.85,0,0,0,20.19,0l13.83,3.52a10.69,10.69,0,0,0,.93,1.93,11,11,0,0,0,11.84,5l2.54,5.13c-.29.14-.58.3-.86.47a10.9,10.9,0,0,0-4.5,5.32l-7.3,0s0,0,0-.06a7.25,7.25,0,1,0-2.43,9.95A7.15,7.15,0,0,0,99,125.5l6.35,0a11,11,0,0,0,5.43,7.19l-1,5.3a7.12,7.12,0,0,0-2.2.87,7.25,7.25,0,1,0,10,2.43,7.14,7.14,0,0,0-1.43-1.7l1-5.59a11,11,0,0,0,9.37-14.32L131,116a7.25,7.25,0,1,0-.77-12.8ZM100.51,88a11,11,0,0,0-4.86,6.4L82.57,91a11.14,11.14,0,0,0-1.31-3.19,10.79,10.79,0,0,0-18.57,0A10.83,10.83,0,0,0,61.39,91L48.3,94.35a11,11,0,0,0-15.61-6.77l-11-9a10.68,10.68,0,0,0,0-4.86l11-9A11,11,0,0,0,48.3,57.94l13.09,3.33a10.83,10.83,0,0,0,19.87,3.19,11.26,11.26,0,0,0,1.31-3.19l13.08-3.33a11,11,0,0,0,15.61,6.77l11,9a10.68,10.68,0,0,0,0,4.86l-11,9A11,11,0,0,0,100.51,88Z"/><path class="cls-1" d="M169,48.31a94.87,94.87,0,0,1,15.22-1.12c7.18,0,11.6.71,15.41,2.92a11.33,11.33,0,0,1,6.22,10.28c0,4.59-2.69,8.91-8.56,11.09v.2c5.95,1.56,10.37,6.1,10.37,12.77a13.82,13.82,0,0,1-5.42,11.08c-3.82,3.07-10.12,4.74-20.5,4.74A90.69,90.69,0,0,1,169,99.5Zm11.68,20h3.83c6.24,0,9.5-2.59,9.5-6.46s-3-6.05-8.33-6.05a25.14,25.14,0,0,0-5,.36Zm0,23.07a29.31,29.31,0,0,0,4.53.21c5.35,0,10.06-2.07,10.06-7.56,0-5.22-4.68-7.3-10.56-7.31h-4Z"/><path class="cls-1" d="M227.48,47.6V99.73H215.69V47.6Z"/><path class="cls-1" d="M285.43,73.14c0,17.1-10.33,27.44-25.57,27.44-15.46,0-24.56-11.7-24.56-26.56,0-15.59,10-27.28,25.38-27.28C276.68,46.74,285.43,58.72,285.43,73.14Zm-37.67.65c0,10.22,4.82,17.42,12.68,17.42S273,83.68,273,73.54c0-9.4-4.45-17.42-12.56-17.42S247.76,63.65,247.76,73.79Z"/><path class="cls-2" d="M333.71,97.39a47.61,47.61,0,0,1-16,2.86c-7.91,0-14.42-2-19.5-6.89C293.69,89,290.92,82.12,290.93,74c0-15.55,10.72-26.93,28.19-26.93a33,33,0,0,1,13,2.39L330.48,55A26.5,26.5,0,0,0,319,52.72C306.31,52.72,298,60.6,298,73.65c0,13.21,7.93,21,20.12,21,4.41,0,7.39-.63,8.95-1.41V77.75H316.54V72.37h17.17Z"/><path class="cls-2" d="M352.39,83.34,347,99.73h-7L357.75,47.6h8.1l17.8,52.13h-7.2l-5.58-16.39Zm17.12-5.26-5.16-15c-1.13-3.42-1.92-6.52-2.69-9.51h-.18c-.75,3-1.56,6.23-2.59,9.42l-5.13,15.09Z"/><path class="cls-2" d="M435,76.84c-.4-7.25-.88-16.05-.83-22.49h-.21c-1.8,6-4,12.62-6.56,19.76L418.16,99.4h-5.08l-8.5-24.82c-2.48-7.37-4.51-14.06-6-20.23h-.18c-.18,6.5-.52,15.18-1,23L396,99.73h-6.39l3.62-52.13h8.6l8.88,25.23c2.15,6.38,3.9,12.12,5.25,17.56h.21c1.37-5.28,3.19-11,5.51-17.56L431,47.6h8.61l3.23,52.13h-6.62Z"/><path class="cls-2" d="M480.13,75.29H459.92V94.12h22.61v5.61H453.15V47.6h28.19v5.6H459.92V69.71h20.21Z"/><path class="cls-2" d="M490.31,91.52a23.48,23.48,0,0,0,12,3.38c6.88,0,10.93-3.6,10.93-8.88,0-4.83-2.82-7.68-9.86-10.31-8.51-3-13.78-7.49-13.78-14.79,0-8.11,6.74-14.14,16.89-14.14A24,24,0,0,1,518,49.3l-1.88,5.52a19.87,19.87,0,0,0-9.85-2.47c-7.16,0-9.86,4.24-9.86,7.79,0,4.84,3.17,7.23,10.36,10,8.85,3.47,13.3,7.71,13.3,15.36,0,8-5.89,15-18.24,15-5,0-10.54-1.52-13.32-3.4Z"/><path class="cls-3" d="M236.21,118.06l-1.43,4.36h-1.86l4.72-13.87h2.16l4.74,13.87h-1.92l-1.49-4.36Zm4.56-1.4-1.37-4c-.3-.91-.51-1.73-.72-2.53h-.05c-.19.81-.41,1.66-.68,2.5l-1.37,4Z"/><path class="cls-3" d="M249.92,108.72a18.89,18.89,0,0,1,3.44-.28,5.68,5.68,0,0,1,3.89,1.16,3.76,3.76,0,0,1,1.22,2.9,4.05,4.05,0,0,1-1.08,3,6.95,6.95,0,0,1-5.68,1.39v5.56h-1.79Zm1.79,6.68a5.23,5.23,0,0,0,1.48.16c2.17,0,3.49-1.07,3.49-3s-1.31-2.73-3.28-2.73a8.4,8.4,0,0,0-1.69.14Z"/><path class="cls-3" d="M264.21,108.74a19.26,19.26,0,0,1,3.45-.3,5.72,5.72,0,0,1,4,1.14,3.47,3.47,0,0,1,1.09,2.64,3.68,3.68,0,0,1-2.62,3.54v0a3.52,3.52,0,0,1,2,2.81,23.07,23.07,0,0,0,1.06,3.8H271.4a17.83,17.83,0,0,1-.92-3.32c-.41-1.9-1.16-2.63-2.78-2.69H266v6h-1.79Zm1.79,6.32h1.83c1.92,0,3.14-1,3.14-2.64,0-1.8-1.3-2.58-3.19-2.59A7.79,7.79,0,0,0,266,110Z"/><path class="cls-3" d="M285.82,115.92h-5.37v5h6v1.49h-7.81V108.55h7.5V110h-5.7v4.4h5.37Z"/><path class="cls-3" d="M292.11,122.42V108.55h2l4.45,7a40.14,40.14,0,0,1,2.47,4.52l.05,0c-.16-1.85-.2-3.55-.2-5.7v-5.81h1.69v13.87h-1.82l-4.41-7a46.31,46.31,0,0,1-2.58-4.64l-.06,0c.11,1.75.13,3.43.13,5.72v5.93Z"/><path class="cls-3" d="M309,108.74a23.85,23.85,0,0,1,3.81-.3c2.57,0,4.41.61,5.62,1.74a6.35,6.35,0,0,1,2,5,7.43,7.43,0,0,1-2,5.4c-1.31,1.29-3.46,2-6.14,2a27.46,27.46,0,0,1-3.26-.16Zm1.8,12.27a11.76,11.76,0,0,0,1.8.09c3.84,0,5.91-2.13,5.91-5.88,0-3.28-1.83-5.35-5.61-5.35a11.21,11.21,0,0,0-2.1.18Z"/><path class="cls-3" d="M328,118.06l-1.43,4.36h-1.86l4.72-13.87h2.16l4.74,13.87h-1.92l-1.49-4.36Zm4.56-1.4-1.37-4c-.3-.91-.51-1.73-.72-2.53h-.05c-.19.81-.41,1.66-.68,2.5l-1.37,4Z"/><path class="cls-3" d="M349.22,120.24a6.25,6.25,0,0,0,3.2.9c1.83,0,2.91-1,2.91-2.36s-.75-2-2.62-2.75c-2.27-.8-3.67-2-3.67-3.93,0-2.16,1.79-3.77,4.49-3.77a6.38,6.38,0,0,1,3.06.67l-.5,1.47a5.28,5.28,0,0,0-2.62-.66c-1.9,0-2.62,1.13-2.62,2.08,0,1.29.84,1.92,2.76,2.66,2.35.93,3.54,2,3.54,4.09s-1.57,4-4.86,4a7.09,7.09,0,0,1-3.54-.91Z"/><path class="cls-3" d="M370.12,115.92h-5.37v5h6v1.49h-7.82V108.55h7.5V110h-5.69v4.4h5.37Z"/><path class="cls-3" d="M384.14,108.74a23.85,23.85,0,0,1,3.81-.3c2.57,0,4.41.61,5.62,1.74a6.35,6.35,0,0,1,2,5,7.43,7.43,0,0,1-2,5.4c-1.31,1.29-3.46,2-6.14,2a27.46,27.46,0,0,1-3.26-.16Zm1.8,12.27a11.76,11.76,0,0,0,1.8.09c3.84,0,5.91-2.13,5.91-5.88,0-3.28-1.83-5.35-5.61-5.35a11.21,11.21,0,0,0-2.1.18Z"/><path class="cls-3" d="M403,108.55v13.87h-1.8V108.55Z"/><path class="cls-3" d="M412.53,122.42,408,108.55h1.94l2.16,6.84c.6,1.87,1.11,3.56,1.48,5.18h.05c.39-1.61,1-3.35,1.58-5.16l2.35-6.86h1.91l-4.95,13.87Z"/><path class="cls-3" d="M431.48,115.92H426.1v5h6v1.49H424.3V108.55h7.5V110h-5.7v4.4h5.38Z"/><path class="cls-3" d="M437.77,108.74a19.18,19.18,0,0,1,3.45-.3,5.73,5.73,0,0,1,4,1.14,3.5,3.5,0,0,1,1.08,2.64,3.67,3.67,0,0,1-2.61,3.54v0a3.49,3.49,0,0,1,2,2.81,23.8,23.8,0,0,0,1.07,3.8H445a18.13,18.13,0,0,1-.91-3.32c-.41-1.9-1.16-2.63-2.78-2.69h-1.7v6h-1.79Zm1.79,6.32h1.83c1.92,0,3.13-1,3.13-2.64,0-1.8-1.3-2.58-3.19-2.59a7.68,7.68,0,0,0-1.77.16Z"/><path class="cls-3" d="M455,110.06h-4.22v-1.51h10.27v1.51h-4.25v12.36H455Z"/><path class="cls-3" d="M467.76,108.55v13.87H466V108.55Z"/><path class="cls-3" d="M474.23,122.42V108.55h2l4.45,7a40.14,40.14,0,0,1,2.47,4.52l.05,0c-.16-1.85-.2-3.55-.2-5.7v-5.81h1.69v13.87h-1.82l-4.41-7a46.31,46.31,0,0,1-2.58-4.64l-.06,0c.11,1.75.13,3.43.13,5.72v5.93Z"/><path class="cls-3" d="M491.13,108.74a23.85,23.85,0,0,1,3.81-.3c2.57,0,4.41.61,5.62,1.74a6.35,6.35,0,0,1,2,5,7.43,7.43,0,0,1-2,5.4c-1.31,1.29-3.46,2-6.14,2a27.46,27.46,0,0,1-3.26-.16Zm1.8,12.27a11.69,11.69,0,0,0,1.8.09c3.84,0,5.91-2.13,5.91-5.88,0-3.28-1.83-5.35-5.61-5.35a11.21,11.21,0,0,0-2.1.18Z"/><path class="cls-3" d="M520.05,115.35c0,4.76-2.9,7.3-6.44,7.3s-6.24-2.85-6.24-7c0-4.4,2.72-7.29,6.43-7.29S520.05,111.23,520.05,115.35Zm-10.78.22c0,3,1.61,5.62,4.44,5.62s4.44-2.61,4.44-5.76c0-2.77-1.44-5.65-4.42-5.65S509.27,112.53,509.27,115.57Z"/></g></g></svg>