<?xml version="1.0" encoding="iso-8859-1"?>
<!-- Generator: Adobe Illustrator 19.0.0, SVG Export Plug-In . SVG Version: 6.00 Build 0)  -->
<svg version="1.1" id="Capa_1" xmlns="http://www.w3.org/2000/svg" xmlns:xlink="http://www.w3.org/1999/xlink" x="0px" y="0px"
	 viewBox="0 0 512 512" style="enable-background:new 0 0 512 512;" xml:space="preserve">
<path style="fill:#89B5FD;" d="M461.072,504.5H50.928C33.968,487.54,24.46,478.032,7.5,461.072V286.144
	c16.96-16.96,26.468-26.468,43.428-43.428h410.145c16.96,16.96,26.468,26.468,43.428,43.428v174.928
	C487.54,478.032,478.032,487.54,461.072,504.5z"/>
<g>
	<polygon style="fill:#2487FF;" points="213.027,348.275 169.752,348.275 169.752,305 119.085,305 119.085,348.275 75.81,348.275 
		75.81,398.942 119.085,398.942 119.085,442.217 169.752,442.217 169.752,398.942 213.027,398.942 	"/>
	<circle style="fill:#2487FF;" cx="415.08" cy="326.64" r="21.637"/>
	<circle style="fill:#2487FF;" cx="415.08" cy="420.58" r="21.637"/>
	<circle style="fill:#2487FF;" cx="368.11" cy="373.61" r="21.637"/>
	<circle style="fill:#2487FF;" cx="462.06" cy="373.61" r="21.637"/>
	<rect x="227.97" y="430" style="fill:#2487FF;" width="34.667" height="34.667"/>
	<rect x="296.87" y="430" style="fill:#2487FF;" width="34.667" height="34.667"/>
	<rect x="230.5" y="282.36" style="fill:#2487FF;" width="98.5" height="27.27"/>
</g>
<polygon style="fill:#FFEA98;" points="191.027,348.275 147.752,348.275 147.752,305 97.085,305 97.085,348.275 53.81,348.275 
	53.81,398.942 97.085,398.942 97.085,442.217 147.752,442.217 147.752,398.942 191.027,398.942 "/>
<circle style="fill:#FF6499;" cx="393.08" cy="326.64" r="21.637"/>
<g>
	<circle style="fill:#C8EDAD;" cx="393.08" cy="420.58" r="21.637"/>
	<circle style="fill:#C8EDAD;" cx="346.11" cy="373.61" r="21.637"/>
</g>
<circle style="fill:#FF6499;" cx="440.06" cy="373.61" r="21.637"/>
<g>
	<rect x="205.97" y="430" style="fill:#FFEA98;" width="34.667" height="34.667"/>
	<rect x="274.87" y="430" style="fill:#FFEA98;" width="34.667" height="34.667"/>
	<rect x="208.5" y="282.36" style="fill:#FFEA98;" width="98.5" height="27.27"/>
</g>
<polygon style="fill:#FF6499;" points="289.752,242.716 225.752,242.716 238.752,213 276.752,213 "/>
<path style="fill:#2487FF;" d="M37.5,461.072V286.144c16.96-16.96,26.468-26.468,43.428-43.428h-30L7.5,286.144v174.928
	c16.96,16.96,26.468,26.468,43.428,43.428h30C63.968,487.54,54.46,478.032,37.5,461.072z"/>
<g>
	<rect x="97.08" y="305" style="fill:#FFD944;" width="20" height="43.27"/>
	<rect x="97.08" y="398.94" style="fill:#FFD944;" width="20" height="43.27"/>
	<rect x="53.81" y="348.27" style="fill:#FFD944;" width="20" height="50.667"/>
</g>
<path style="fill:#FF0C38;" d="M391.448,326.637c0-8.341,4.723-15.575,11.637-19.187c-2.992-1.563-6.391-2.451-10-2.451
	c-11.95,0-21.637,9.688-21.637,21.637s9.687,21.637,21.637,21.637c3.609,0,7.008-0.888,10-2.451
	C396.17,342.213,391.448,334.979,391.448,326.637z"/>
<g>
	<path style="fill:#90DB5A;" d="M391.448,420.579c0-8.341,4.723-15.575,11.637-19.187c-2.992-1.563-6.391-2.451-10-2.451
		c-11.95,0-21.637,9.687-21.637,21.637c0,11.95,9.687,21.637,21.637,21.637c3.609,0,7.008-0.888,10-2.451
		C396.17,436.154,391.448,428.92,391.448,420.579z"/>
	<path style="fill:#90DB5A;" d="M344.477,373.608c0-8.341,4.723-15.575,11.637-19.187c-2.992-1.563-6.391-2.451-10-2.451
		c-11.95,0-21.637,9.688-21.637,21.637c0,11.95,9.687,21.637,21.637,21.637c3.609,0,7.008-0.888,10-2.451
		C349.199,389.183,344.477,381.949,344.477,373.608z"/>
</g>
<path style="fill:#FF0C38;" d="M438.418,373.608c0-8.341,4.723-15.575,11.637-19.187c-2.992-1.563-6.391-2.451-10-2.451
	c-11.95,0-21.637,9.688-21.637,21.637c0,11.95,9.687,21.637,21.637,21.637c3.609,0,7.008-0.888,10-2.451
	C443.141,389.183,438.418,381.949,438.418,373.608z"/>
<g>
	<rect x="205.97" y="430" style="fill:#FFD944;" width="20" height="34.667"/>
	<rect x="274.87" y="430" style="fill:#FFD944;" width="20" height="34.667"/>
	<rect x="208.5" y="282.36" style="fill:#FFD944;" width="20" height="27.27"/>
</g>
<polygon style="fill:#FF0C38;" points="238.752,213 225.752,242.717 245.752,242.717 258.752,213 "/>
<g>
	<rect x="90.3" y="469" style="fill:#1D1D1F;" width="15" height="15"/>
	<rect x="115.3" y="469" style="fill:#1D1D1F;" width="15" height="15"/>
	<rect x="65.3" y="469" style="fill:#1D1D1F;" width="15" height="15"/>
	<polygon style="fill:#1D1D1F;" points="464.179,235.216 412.94,235.216 412.94,250.216 457.966,250.216 497,289.25 497,457.966 
		457.966,497 54.034,497 15,457.966 15,412.674 0,412.674 0,464.179 47.821,512 464.179,512 512,464.179 512,283.038 	"/>
	<path style="fill:#1D1D1F;" d="M15,289.25l39.034-39.034H397.94v-15H294.657l-13-29.716H263.5V50h-15v155.5h-14.654l-13,29.716
		H47.821L0,283.038v114.636h15V289.25z M243.657,220.5h28.189l6.438,14.716h-41.065L243.657,220.5z"/>
</g>
<g>
	<rect x="383.42" y="260.17" style="fill:#FFFFFF;" width="67.14" height="15"/>
	<rect x="333.42" y="260.17" style="fill:#FFFFFF;" width="15" height="15"/>
	<rect x="358.42" y="260.17" style="fill:#FFFFFF;" width="15" height="15"/>
</g>
<g>
	<polygon style="fill:#1D1D1F;" points="155.251,406.441 198.526,406.441 198.526,377.14 183.526,377.14 183.526,391.441 
		140.251,391.441 140.251,434.716 104.585,434.716 104.585,391.441 61.31,391.441 61.31,355.775 104.585,355.775 104.585,312.5 
		140.251,312.5 140.251,355.775 183.526,355.775 183.526,362.14 198.526,362.14 198.526,340.775 155.251,340.775 155.251,297.5 
		89.585,297.5 89.585,340.775 46.31,340.775 46.31,406.441 89.585,406.441 89.585,449.716 155.251,449.716 	"/>
	<path style="fill:#1D1D1F;" d="M363.947,326.638c0,16.066,13.071,29.137,29.138,29.137s29.137-13.071,29.137-29.137
		S409.151,297.5,393.085,297.5S363.947,310.571,363.947,326.638z M393.085,312.5c7.795,0,14.137,6.342,14.137,14.138
		s-6.342,14.137-14.137,14.137s-14.138-6.342-14.138-14.137S385.29,312.5,393.085,312.5z"/>
	<path style="fill:#1D1D1F;" d="M393.085,449.716c16.066,0,29.137-13.071,29.137-29.137s-13.071-29.138-29.137-29.138
		s-29.138,13.071-29.138,29.138S377.019,449.716,393.085,449.716z M393.085,406.441c7.795,0,14.137,6.342,14.137,14.138
		s-6.342,14.137-14.137,14.137s-14.138-6.342-14.138-14.137S385.29,406.441,393.085,406.441z"/>
	<path style="fill:#1D1D1F;" d="M346.114,402.746c16.066,0,29.137-13.071,29.137-29.137s-13.071-29.138-29.137-29.138
		s-29.138,13.071-29.138,29.138S330.048,402.746,346.114,402.746z M346.114,359.471c7.795,0,14.137,6.342,14.137,14.138
		s-6.342,14.137-14.137,14.137s-14.138-6.342-14.138-14.137S338.319,359.471,346.114,359.471z"/>
	<path style="fill:#1D1D1F;" d="M469.193,373.608c0-16.066-13.071-29.138-29.138-29.138s-29.137,13.071-29.137,29.138
		s13.071,29.137,29.137,29.137S469.193,389.675,469.193,373.608z M440.056,387.746c-7.795,0-14.137-6.342-14.137-14.137
		s6.342-14.138,14.137-14.138s14.138,6.342,14.138,14.138S447.851,387.746,440.056,387.746z"/>
	<rect x="380.42" y="469" style="fill:#1D1D1F;" width="68.61" height="15"/>
	<rect x="61.42" y="260.17" style="fill:#1D1D1F;" width="37.21" height="15"/>
	<path style="fill:#1D1D1F;" d="M248.136,422.5h-49.667v49.667h49.667L248.136,422.5L248.136,422.5z M233.136,457.167h-19.667V437.5
		h19.667L233.136,457.167L233.136,457.167z"/>
	<path style="fill:#1D1D1F;" d="M317.034,422.5h-49.667v49.667h49.667V422.5z M302.034,457.167h-19.667V437.5h19.667V457.167z"/>
	<path style="fill:#1D1D1F;" d="M314.503,274.862H201v42.275h113.503V274.862z M299.503,302.138H216v-12.275h83.503V302.138z"/>
	<rect x="248.5" style="fill:#1D1D1F;" width="15" height="15"/>
	<rect x="248.5" y="25" style="fill:#1D1D1F;" width="15" height="15"/>
</g>
<g>
</g>
<g>
</g>
<g>
</g>
<g>
</g>
<g>
</g>
<g>
</g>
<g>
</g>
<g>
</g>
<g>
</g>
<g>
</g>
<g>
</g>
<g>
</g>
<g>
</g>
<g>
</g>
<g>
</g>
</svg>
